<svg xmlns="http://www.w3.org/2000/svg" viewBox="0 0 1.94 1"><path d="M0,.65s0,0,0,0S.05.44.14.38.22.08.33.12h0a.76.76,0,0,1,0,.11L.52.13l0,0h0v0l0,0v0l0,0H.66l0,0h0l0,0v0l0,0V0l0,0h0l0,0H.92V0L1,0V0L1,0V0L1,0V0h.05V0l0,0h0V0l0,0V0l0,0V0l0,0V0l0,0V0l0,0V0l0,0V0h0v0h0v0h.06v0h.05l0,0s0-.07,0-.08,0,0,0,0h0s.22.18.22.22a.3.3,0,0,1,0,.09H1.77v0h0v0l0,0h0v0l0,0h0l0,0h0l0,0h0l0,0v0l0,0h0v0h0l0,.06h0V.83h0v0h0v0l0,0a.4.4,0,0,1-.38,0A1.21,1.21,0,0,1,1.22.78S1.06.59,1.07.55v0s0,0,0,0a2.2,2.2,0,0,0,.2.23s.27.2.41.12.07-.26.07-.26L1.72.57a.32.32,0,0,1-.12,0,.73.73,0,0,0-.22,0s.08,0,.08.08,0,.07,0,.07,0,.08-.08.08L1.27.73a.18.18,0,0,0,0-.19V.47A.71.71,0,0,0,.9.53C.75.6.75.56.75.56A1.1,1.1,0,0,1,.66.71l0,0h0l0,0H.63v0L.57.81.6.9l0,0,0,.05A.18.18,0,0,1,.48.78L.39.86S.32.83.49.71L.58.56S0,.85,0,.65Z"/></svg>