<svg xmlns="http://www.w3.org/2000/svg" viewBox="0 0 1 0.51"><path d="M-193.12-421.09a0,0,0,0,1,0,0s0-.09.06-.12.05-.15.1-.13h0l0,.06.07-.06h0v0h.05l0,0h0l0,0v0h.25v0h.13s0,0,0-.05,0,0,0,0h0s.11.09.11.11a.2.2,0,0,1,0,.05h0l0,0h0l0,0h0l0,0h0v0h0v0h0v0h0v0h0l0,0a.2.2,0,0,1-.19,0,.7.7,0,0,1-.13-.1.62.62,0,0,1-.08-.12v0a0,0,0,0,1,0,0s.1.12.1.12.14.1.21.06a.1.1,0,0,0,0-.13l0,0h-.18l0,0a.07.07,0,0,1,0,0l0,0,0,0a.09.09,0,0,0,0-.1v0a.41.41,0,0,0-.19,0c-.07,0-.07,0-.07,0l-.05.07,0,0h0l0,0h-.06v.05l0,0,0,0s-.05,0-.05-.06l0,0s0,0,0-.08l.05-.07S-193.12-421-193.12-421.09Z" transform="translate(193.12 421.42)"/></svg>