<?xml version="1.0" encoding="utf-8"?>
<!-- Generator: Adobe Illustrator 24.3.0, SVG Export Plug-In . SVG Version: 6.00 Build 0)  -->
<svg version="1.1" id="Layer_2" xmlns="http://www.w3.org/2000/svg" xmlns:xlink="http://www.w3.org/1999/xlink" x="0px" y="0px"
	 viewBox="0 0 9.3 6.1" style="enable-background:new 0 0 9.3 6.1;" xml:space="preserve">
<path d="M3.9,3.2C3.9,3.2,3.9,3.2,3.9,3.2c0,0,0-0.1,0.1-0.1c0,0,0-0.2,0.1-0.1c0,0,0,0,0,0c0,0,0,0.1,0,0.1L4.1,3l0,0l0,0v0l0,0
	l0,0l0,0l0,0l0,0h0l0,0l0,0l0,0v0l0,0v0l0,0v0l0,0v0l0,0v0l0,0v0l0,0v0l0,0l0,0l0,0l0,0l0,0l0,0l0,0l0,0l0,0v0l0,0v0l0,0v0l0,0l0,0
	l0,0v0l0,0v0l0,0v0l0,0v0h0l0,0l0,0v0l0,0v0l0,0c0,0,0,0,0,0c0,0,0,0,0,0c0,0,0,0,0,0S4.8,3,4.8,3c0,0,0,0,0,0l0,0l0,0l0,0l0,0v0
	l0,0l0,0l0,0l0,0l0,0l0,0l0,0l0,0l0,0l0,0l0,0l0,0l0,0l0,0l0,0l0,0l0,0h0l0,0h0l0,0h0l0,0l0,0l0,0l0,0c0,0-0.1,0.1-0.2,0
	c0,0-0.1,0-0.1-0.1c0,0-0.1-0.1-0.1-0.1s0,0,0,0s0,0,0,0c0,0,0.1,0.1,0.1,0.1s0.1,0.1,0.2,0.1c0.1,0,0-0.1,0-0.1l0,0c0,0,0,0-0.1,0
	s-0.1,0-0.1,0s0,0,0,0c0,0,0,0,0,0s0,0,0,0l0,0c0,0,0-0.1,0-0.1l0,0c0,0-0.1,0-0.2,0c-0.1,0-0.1,0-0.1,0s0,0.1,0,0.1l0,0l0,0l0,0
	l0,0l0,0l0,0l0,0l0,0l0,0c0,0,0,0,0-0.1l0,0c0,0,0,0,0-0.1l0-0.1C4.2,3.2,3.9,3.3,3.9,3.2z"/>
<path d="M345.4,1219"/>
</svg>
