<svg xmlns="http://www.w3.org/2000/svg" viewBox="0 0 504 514.1"><g id="Layer_2" data-name="Layer 2"><g id="Layer_1-2" data-name="Layer 1"><path d="M1.32,88.33S19.63,63.3,30,59.63c0,0,4.27-13.43,25.64-15.26,0,0,3.05,3.66,12.21-6.72,0,0,64.71-64.1,95.24-25,0,0,6.72,11.6-11.6,26.26l12.8-5.5v5.5L175.92,28.5V37l10.38-7.93v4.38l9.9-4.42v5.81l11.35-4.15v5L224.37,31l-3.26,5H235l-2.49,3.59,15.22-.83-5.26,3.32,17.16,2.09L254.32,46l13,.28-1.94,3.87,10.8,1.11-3.05,2.21,12.73,2.21-4.7,4.16,12.17,1.66-2.76,3L301.65,67l-4.16,4.15,12.18,1.94-4.34,3L315.48,80l-3.59,2.49,10.24,4.15-4.43,1.7,9.13,5.5-4.43,2.49,10.52,6.36L329,104.9l9.41,6.08-3,1.39s7.75,3.6,5.81,6.36,3.6,4.71,3.6,4.71,4.15,4.15,2.21,7.75,3.88,6.36,3.88,6.36a13.91,13.91,0,0,1,1.93,8.3c-.55,4.43,8.13,30.55,2.85,102.65s65.66,99.06,65.66,99.06,37.51,21.11,42.79,48.66l37,10L504,514.1H446s-50.41-11.2-107.86-59.26-134.24-70.93-134.24-70.93l-1.17-11.14s-11.72-5.28-12.31-16.41c0,0,14.07-4.11-1.76-27,0,0-9.38,1.17-12.89-22.86,0,0-151.83-8.79-116.66-92.62,0,0-13.29,4.56-5.41,9.74,0,0-3.15,2.7-6.31-4.51,0,0-6.3,3.83-3.6,11l-3.38-2.48v3.38s-17.56-16.89,20.5-33.78c0,0-.68-37.83,28.6-14L136.54,177s-11.71-15.76-12.16-23.42L119.86,157l-6.8-2.83-2,2.55-6-6.52-.28,3.69-6.52-4,.57,3.12-8.5-5.39.57,3.69-7.93-4,1.7,6.23-9.07-6.8-.28,3.69-6.23-6v5.66l-5.39-5.66-5.1-2.83-5.09.28-5.95-5.38v4.53l-5.39-6.23v3.4l-5.38-6v4.25l-5.1-5.1-.56,3.11-3.4-8.21-2.27,3.68-4.82-4.25-.84,4.25L16.18,123l-3.68-4.53L8,120.21l-.29-6.8-2,3.4V110L4,112.56S-2.78,96.39,1.32,88.33Z"/><path d="M155.91,199.64l27.22-5.33,5-5.62s28.12,12.43,31.07,19.83-4.14,21-4.14,21-12.43-12.43-21-1.78l-6.15-10.06Z" style="fill:#fefefe"/><path d="M241,265l13.71-13.71s25.28,38.14,39,48c0,0-27.33-10.28-41.73-9.85C252,289.4,263.31,283.4,241,265Z" style="fill:#fefefe"/><path d="M337.86,334.81s57.41,44.56,86.55,55.7c0,0-13.29,14.57-25.71,11.14S351.57,361.8,337.86,334.81Z" style="fill:#fefefe"/></g></g></svg>