<svg xmlns="http://www.w3.org/2000/svg" viewBox="0 0 1 1.02"><g id="Layer_2" data-name="Layer 2"><g id="Layer_1-2" data-name="Layer 1"><path d="M0,.18.06.12a0,0,0,0,1,.05,0s0,0,0,0S.26,0,.32,0s0,0,0,.05h0l0,0H.67v0h0a0,0,0,0,1,0,0s0,0,0,0v0a.63.63,0,0,1,0,.2.2.2,0,0,0,.13.2.17.17,0,0,1,.08.1L1,.81V1H.88A.49.49,0,0,1,.67.9.94.94,0,0,0,.4.76v0a0,0,0,0,1,0,0s0,0,0-.06,0,0,0,0S.05.59.12.42c0,0,0,0,0,0s0,0,0,0,0,0,0,0h0s0,0,0-.07,0-.07.06,0H.27a.12.12,0,0,1,0,0H.06v0H0v0H0S0,.19,0,.18Z"/><path d="M.31.4h0v0l.06,0a.08.08,0,0,1,0,.05s0,0,0,0l0,0Z" style="fill:#fefefe"/><path d="M.48.53l0,0L.58.59.5.57S.52.56.48.53Z" style="fill:#fefefe"/><path d="M.67.66A.82.82,0,0,0,.84.77a.07.07,0,0,1,0,0A.44.44,0,0,1,.67.66Z" style="fill:#fefefe"/></g></g></svg>